#N canvas 303 290 770 428 10;
#X obj 142 184 r ctls;
#X obj 226 184 r notes;
#X msg 226 206 set \$1 \$2 \$3;
#X msg 226 228 1 26 0;
#X msg 142 206 set \$1 \$2 \$3;
#X msg 142 228 2 26 63;
#X obj 332 181 r ctls;
#X obj 332 216 unpack f f f;
#X obj 332 250 pack f f f;
#X obj 412 233 / 127;
#X obj 341 397 t a;
#X obj 341 430 packOSC;
#X obj 341 476 udpsend;
#X msg 192 450 connect 127.0.0.1 12345;
#X obj 341 503 tgl 15 0 empty empty connected 17 7 0 10 -262144 -1
-1 1 1;
#X obj 178 504 bng 15 250 50 0 empty empty connect_localhost_12345
17 7 0 10 -262144 -1 -1;
#X obj 25 552 cnv 15 380 23 empty mess-\$0 /wand/wandCircGravityScale_0.496063
20 12 0 14 -128992 -204800 0;
#X obj 396 436 prepend label;
#X obj 396 414 l2s _;
#X obj 396 458 s mess-\$0;
#X obj 341 453 spigot;
#X obj 169 405 t b;
#X obj 147 340 == 0;
#X obj 145 376 spigot;
#N canvas 366 279 828 498 sub_one 1;
#X obj 72 36 inlet;
#X obj 140 384 outlet;
#X obj 93 74 route 21 22 23 24 25 26 27 28;
#X obj 498 60 route 41 42 43 44 45 46 47 48;
#X obj 537 359 t a;
#X msg 496 322 /grid/gridFade \$1;
#X msg 90 317 /grid/gridAlpha \$1;
#X msg 114 291 /grid/gridSpeedScale \$1;
#X msg 538 268 /grid/gridIterationsX \$1;
#X msg 142 262 /grid/gridIterationsY \$1;
#X msg 515 292 /grid/gridLowerT \$1;
#X msg 162 232 /grid/gridRotationDistanceY \$1;
#X msg 559 240 /grid/gridRotationDistanceX \$1;
#X msg 227 206 /tron/tronAlpha \$1;
#X msg 574 210 /tron/tronFade \$1;
#X msg 253 179 /tron/tronSpeedScale \$1;
#X msg 594 182 /tron/tronCount \$1;
#X msg 281 154 /tron/tronLineThickness \$1;
#X msg 615 157 /tron/tronLowerT \$1;
#X msg 635 128 /tron/tronRotationDistanceY \$1;
#X msg 299 120 /tron/tronRotationDistanceX \$1;
#X msg 155 134 /wand/wandCircGravityScale \$1;
#X connect 0 0 2 0;
#X connect 0 0 3 0;
#X connect 2 0 6 0;
#X connect 2 1 7 0;
#X connect 2 2 9 0;
#X connect 2 3 21 0;
#X connect 2 4 13 0;
#X connect 2 5 15 0;
#X connect 2 6 17 0;
#X connect 3 0 5 0;
#X connect 3 1 18 0;
#X connect 3 2 8 0;
#X connect 3 4 14 0;
#X connect 3 6 16 0;
#X connect 3 7 18 0;
#X connect 3 7 10 0;
#X connect 4 0 1 0;
#X connect 5 0 4 0;
#X connect 6 0 1 0;
#X connect 7 0 1 0;
#X connect 8 0 4 0;
#X connect 9 0 1 0;
#X connect 10 0 4 0;
#X connect 11 0 1 0;
#X connect 12 0 4 0;
#X connect 13 0 1 0;
#X connect 14 0 4 0;
#X connect 15 0 1 0;
#X connect 16 0 4 0;
#X connect 17 0 1 0;
#X connect 18 0 4 0;
#X connect 19 0 4 0;
#X connect 21 0 1 0;
#X restore 320 342 pd sub_one;
#X msg 534 363 sendtyped /grid/whatever f \$1;
#N canvas 393 162 723 452 sub_two 0;
#X obj 285 57 inlet;
#X obj 353 349 outlet;
#X obj 306 95 route 21 22 23 24 25 26 27 28;
#X obj 640 70 route 41 42 43 44 45 46 47 48;
#X obj 690 324 t a;
#X msg 303 282 /wand/wandCircAlpha \$1;
#X msg 328 256 /wand/wandCircSpeedScale \$1;
#X msg 670 259 /wand/wandCircSpeedScale \$1;
#X msg 375 197 /wand/wandCircRadius \$1;
#X msg 712 205 /wand/wandCircGravityStrength \$1;
#X msg 391 172 /wand/wandCircCount \$1;
#X msg 733 176 /wand/wandCircAddFreq \$1;
#X msg 756 146 /wand/wandCircGravityStrength \$1;
#X msg 407 152 /wand/wandCircGravityScale \$1;
#X msg 438 123 /wand/wandCircGravityPower \$1;
#X msg 779 124 /wand/wandRotationDistance \$1;
#X msg 650 287 /wand/wandCircFade \$1;
#X text 842 257 duplicate;
#X msg 691 232 /wand/wandCircAccelFreq \$1;
#X msg 355 227 /wand/wandCircMaxAccel \$1;
#X connect 0 0 2 0;
#X connect 0 0 3 0;
#X connect 2 0 5 0;
#X connect 2 1 6 0;
#X connect 2 2 19 0;
#X connect 2 3 8 0;
#X connect 2 4 12 0;
#X connect 2 5 13 0;
#X connect 2 6 14 0;
#X connect 3 0 16 0;
#X connect 3 1 7 0;
#X connect 3 2 18 0;
#X connect 3 3 10 0;
#X connect 3 6 15 0;
#X connect 4 0 1 0;
#X connect 5 0 1 0;
#X connect 6 0 1 0;
#X connect 7 0 4 0;
#X connect 8 0 1 0;
#X connect 9 0 4 0;
#X connect 10 0 1 0;
#X connect 11 0 4 0;
#X connect 12 0 4 0;
#X connect 13 0 1 0;
#X connect 14 0 1 0;
#X connect 15 0 4 0;
#X connect 16 0 4 0;
#X connect 18 0 4 0;
#X connect 19 0 1 0;
#X restore 400 342 pd sub_two;
#N canvas 577 180 671 448 sub_three 0;
#X obj 390 12 inlet;
#X obj 458 304 outlet;
#X obj 411 50 route 21 22 23 24 25 26 27 28;
#X obj 745 25 route 41 42 43 44 45 46 47 48;
#X obj 795 279 t a;
#X text 947 212 duplicate;
#X msg 405 208 /tron/tronAlpha \$1;
#X msg 752 212 /tron/tronFade \$1;
#X msg 431 181 /tron/tronSpeedScale \$1;
#X msg 772 184 /tron/tronCount \$1;
#X msg 459 156 /tron/tronLineThickness \$1;
#X msg 793 159 /tron/tronLowerT \$1;
#X msg 813 130 /tron/tronRotationDistanceY \$1;
#X msg 477 122 /tron/tronRotationDistanceX \$1;
#X connect 0 0 2 0;
#X connect 0 0 3 0;
#X connect 2 0 6 0;
#X connect 2 1 8 0;
#X connect 2 2 10 0;
#X connect 2 3 13 0;
#X connect 3 0 7 0;
#X connect 3 1 9 0;
#X connect 3 2 11 0;
#X connect 3 3 12 0;
#X connect 4 0 1 0;
#X connect 6 0 1 0;
#X connect 7 0 4 0;
#X connect 8 0 1 0;
#X connect 9 0 4 0;
#X connect 10 0 1 0;
#X connect 11 0 4 0;
#X connect 12 0 4 0;
#X connect 13 0 1 0;
#X restore 480 342 pd sub_three;
#X obj 332 272 route 1 2 3;
#N canvas 577 180 671 448 sub_all 0;
#X obj 72 36 inlet;
#X obj 99 303 outlet;
#X obj 93 74 route 21 22 23 24 25 26 27 28;
#X obj 487 74 route 41 42 43 44 45 46 47 48;
#X connect 0 0 2 0;
#X connect 0 0 3 0;
#X restore 240 342 pd sub_all;
#X msg 247 304 \$2 \$3;
#X connect 0 0 4 0;
#X connect 1 0 2 0;
#X connect 2 0 3 0;
#X connect 4 0 5 0;
#X connect 6 0 7 0;
#X connect 7 0 8 0;
#X connect 7 1 8 1;
#X connect 7 2 9 0;
#X connect 8 0 28 0;
#X connect 8 0 30 0;
#X connect 9 0 8 2;
#X connect 10 0 18 0;
#X connect 10 0 11 0;
#X connect 10 0 23 0;
#X connect 11 0 20 0;
#X connect 12 0 14 0;
#X connect 12 0 20 1;
#X connect 12 0 22 0;
#X connect 13 0 12 0;
#X connect 15 0 13 0;
#X connect 17 0 19 0;
#X connect 18 0 17 0;
#X connect 20 0 12 0;
#X connect 21 0 13 0;
#X connect 22 0 23 1;
#X connect 23 0 21 0;
#X connect 24 0 10 0;
#X connect 26 0 10 0;
#X connect 27 0 10 0;
#X connect 28 0 24 0;
#X connect 28 1 26 0;
#X connect 28 2 27 0;
#X connect 29 0 10 0;
#X connect 30 0 29 0;
#X coords 0 -1 1 1 400 80 1 20 500;
