#N canvas 419 81 887 648 10;
#X obj -18 4 r ctls;
#X obj 66 4 r notes;
#X msg 66 26 set \$1 \$2 \$3;
#X msg 66 48 1 25 127;
#X msg -18 26 set \$1 \$2 \$3;
#X msg -18 48 1 21 13;
#X obj 172 1 r ctls;
#X obj 172 92 route 1;
#X obj 172 125 route 21 22 23 24 25 26 27 28;
#X obj 566 125 route 41 42 43 44 45 46 47 48;
#X obj 172 36 unpack f f f;
#X obj 172 70 pack f f f;
#X obj 252 53 / 127;
#X obj 172 194 * 1;
#X obj 341 397 t a;
#X obj 341 430 packOSC;
#X obj 341 476 udpsend;
#X msg 192 450 connect 127.0.0.1 12345;
#X obj 341 503 tgl 15 0 empty empty connected 17 7 0 10 -262144 -1
-1 0 1;
#X obj 178 504 bng 15 250 50 0 empty empty connect_localhost_12345
17 7 0 10 -262144 -1 -1;
#X obj 25 552 cnv 15 380 23 empty mess-\$0 sendtyped_/grid/whatever_f_0.102362
20 12 0 14 -128992 -204800 0;
#X obj 396 436 prepend label;
#X obj 396 414 l2s _;
#X obj 396 458 s mess-\$0;
#X msg 172 254 sendtyped /grid/whatever f \$1;
#X obj 341 453 spigot;
#X connect 0 0 4 0;
#X connect 1 0 2 0;
#X connect 2 0 3 0;
#X connect 4 0 5 0;
#X connect 6 0 10 0;
#X connect 7 0 8 0;
#X connect 7 0 9 0;
#X connect 8 0 13 0;
#X connect 10 0 11 0;
#X connect 10 1 11 1;
#X connect 10 2 12 0;
#X connect 11 0 7 0;
#X connect 12 0 11 2;
#X connect 13 0 24 0;
#X connect 14 0 22 0;
#X connect 14 0 15 0;
#X connect 15 0 25 0;
#X connect 16 0 18 0;
#X connect 16 0 25 1;
#X connect 17 0 16 0;
#X connect 19 0 17 0;
#X connect 21 0 23 0;
#X connect 22 0 21 0;
#X connect 24 0 14 0;
#X connect 25 0 16 0;
#X coords 0 -1 1 1 400 80 1 20 500;
