#N canvas 210 96 396 377 10;
#X obj -73 -155 ctlin;
#X obj -76 -63 pack f f f;
#X obj 29 -42 pack f f f;
#X msg -76 -41 \$3 \$2 \$1;
#X obj -63 -11 s ctls;
#X obj 29 -69 stripnote;
#X obj 55 -146 notein;
#X msg 29 -19 \$3 \$1 \$2;
#X obj 29 4 s buts;
#X obj 123 -43 pack f f f;
#X msg 123 -20 \$3 \$1 \$2;
#X obj -42 130 noteout;
#X obj -42 88 r nout;
#X msg -42 109 \$2 \$3 \$1;
#X obj 15 127 ctlout;
#X obj 22 78 r cout;
#X msg 20 101 \$3 \$2 \$1;
#X floatatom 103 140 5 0 0 0 - - -;
#X obj 124 3 s notes;
#X obj 179 39 unpack f f f;
#X floatatom 137 140 5 0 0 0 - - -;
#X floatatom 171 140 5 0 0 0 - - -;
#X floatatom 103 118 5 0 0 0 - - -;
#X obj 103 79 unpack f f f;
#X floatatom 137 118 5 0 0 0 - - -;
#X floatatom 171 118 5 0 0 0 - - -;
#X obj 103 57 r ctls;
#X text 203 118 ctl;
#X text 204 140 nte;
#X connect 0 0 1 0;
#X connect 0 1 1 1;
#X connect 0 2 1 2;
#X connect 1 0 3 0;
#X connect 2 0 7 0;
#X connect 3 0 4 0;
#X connect 5 0 2 0;
#X connect 5 1 2 1;
#X connect 6 0 5 0;
#X connect 6 0 9 0;
#X connect 6 1 5 1;
#X connect 6 1 9 1;
#X connect 6 2 2 2;
#X connect 6 2 9 2;
#X connect 7 0 8 0;
#X connect 9 0 10 0;
#X connect 10 0 18 0;
#X connect 10 0 19 0;
#X connect 12 0 13 0;
#X connect 13 0 11 0;
#X connect 15 0 16 0;
#X connect 16 0 14 0;
#X connect 19 0 17 0;
#X connect 19 1 20 0;
#X connect 19 2 21 0;
#X connect 23 0 22 0;
#X connect 23 1 24 0;
#X connect 23 2 25 0;
#X connect 26 0 23 0;
#X coords 0 -1 1 1 142 60 1 100 100;
