#N canvas -6 170 957 566 10;
#X obj 197 -1 catch~ l;
#X obj 253 -1 catch~ r;
#X obj 14 -151 import mrpeach;
#X text 127 -161 /bike/speed 0-1;
#X text 127 -148 /bike/brake 0-1;
#X text 127 -135 /bike/steering 0-1;
#X obj 14 -121 udpreceive 8888;
#X obj 14 -99 unpackOSC;
#X obj 14 -77 s osc-in;
#X text 130 -79 sample_2.wav in root dir!!!;
#X obj 655 38 prepend set;
#X msg 655 60 /sampler/load 2 13;
#X obj 564 21 any;
#X obj 467 -116 hsl 128 15 0 2 0 0 empty empty speed -2 -8 0 10 -262144
-1 -1 5500 1;
#X msg 464 -96 /bike/speed \$1;
#X obj 614 -117 hradio 15 1 0 22 empty empty sample_X 0 -8 0 10 -262144
-1 -1 13;
#X obj 689 -79 tgl 15 0 empty empty gain/fade 17 7 0 10 -262144 -1
-1 1 1;
#X obj 840 -79 bng 15 250 50 0 empty empty cue 17 7 0 10 -262144 -1
-1;
#X text 685 -166 testing;
#X obj 295 27 f;
#X msg 313 -1 5000;
#X obj 196 94 freeverb~;
#X msg 105 31 roomsize \$1;
#X msg 305 100 bypass \$1;
#X obj 305 82 tgl 15 0 empty empty empty 17 7 0 10 -262144 -1 -1 0
1;
#X msg 93 90 damping \$1;
#X msg 85 157 dry \$1;
#X obj 384 -16 loadbang;
#X msg 384 5 \; pd dsp 1;
#X msg 305 62 1;
#X text 127 -121 /sampler/fade 1 0 1000;
#X text 127 -108 /sampler/cue/ 1 0.5;
#X text 127 -95 /sampler/load/ 1 2;
#X msg 564 -39 /sampler/load 2 \$1;
#X msg 689 -39 /sampler/gain 2 \$1 1000;
#X msg 840 -39 /sampler/cue 2 \$1;
#X obj 242 27 *~ 1;
#X obj 197 29 *~ 1;
#X floatatom 242 -20 5 0 0 0 - - -, f 5;
#X msg 247 -40 1.6;
#X floatatom 611 -80 5 0 0 0 - - -, f 5;
#X text 841 6 10 organi scene;
#X text 844 -13 2 4 5 6 8fav;
#X text 846 34 11 12 13;
#X obj 91 -74 bng 15 250 50 0 empty empty empty 17 7 0 10 -262144 -1
-1;
#X text 857 53 17 18;
#X text 854 73 19 faster;
#X text 862 92 21;
#X obj 14 -48 prepend set;
#X msg 14 -26 /bike/speed 22;
#X obj 30 227 midiman;
#X obj 16 324 bikeRideController;
#N canvas 430 266 450 300 scraps 0;
#X obj 455 94 tgl 15 0 empty empty empty 17 7 0 10 -262144 -1 -1 0
1;
#X obj 455 114 sel 0 1;
#X msg 455 136 close;
#X msg 386 156 0;
#X obj 465 206 print;
#X msg 492 136 devicename /dev/ttyACM0 115200;
#X obj 386 134 metro 20;
#X obj 465 186 comport 0 115200;
#X obj 455 39 inlet;
#X connect 0 0 1 0;
#X connect 0 0 6 0;
#X connect 1 0 2 0;
#X connect 1 1 5 0;
#X connect 2 0 7 0;
#X connect 3 0 7 0;
#X connect 5 0 7 0;
#X connect 6 0 3 0;
#X connect 7 0 4 0;
#X connect 8 0 0 0;
#X restore 435 279 pd scraps;
#X obj 431 135 shell;
#X msg 432 113 aconnect -x;
#X obj 391 111 shell;
#X msg 391 89 aconnect 24:0 128:0;
#X obj 411 63 t b b;
#X obj 566 45 s osc-in;
#X obj 25 40 smplr 2;
#X obj 26 18 smplr 1;
#X obj 215 172 dac~ 1 2 3 4 5 6;
#X obj 597 193 sel 9 10 11 12 25 26 27 28;
#X obj 648 130 r buts;
#X msg 659 161 \$2 \$3;
#X obj 617 335 s osc-in;
#X msg 657 239 11;
#X msg 687 239 12;
#X msg 717 239 13;
#X msg 747 240 14;
#X msg 777 239 17;
#X msg 807 239 18;
#X msg 629 313 /sampler/load 2 \$1;
#X msg 612 278 \$1;
#X obj 295 -56 r mastergain;
#X obj 428 216 tgl 55 0 empty empty empty 17 7 0 10 -262144 -1 -1 0
1;
#X msg 840 -60 0.2;
#X obj 68 131 hsl 128 15 0 2 0 0 empty empty speed -2 -8 0 10 -262144
-1 -1 4500 1;
#X obj 99 -2 hsl 128 15 0 2 0 0 empty empty speed -2 -8 0 10 -262144
-1 -1 1950 1;
#X obj 83 68 hsl 128 15 0 2 0 0 empty empty speed -2 -8 0 10 -262144
-1 -1 8850 1;
#X msg 597 239 19;
#X floatatom 754 297 5 0 0 0 - - -, f 5;
#X msg 628 239 13;
#X connect 0 0 37 0;
#X connect 1 0 36 0;
#X connect 6 0 7 0;
#X connect 7 0 8 0;
#X connect 7 0 44 0;
#X connect 7 0 48 0;
#X connect 10 0 11 0;
#X connect 12 0 10 0;
#X connect 12 0 58 0;
#X connect 13 0 14 0;
#X connect 14 0 12 0;
#X connect 15 0 33 0;
#X connect 15 0 40 0;
#X connect 16 0 34 0;
#X connect 17 0 76 0;
#X connect 20 0 19 0;
#X connect 21 0 61 0;
#X connect 21 0 61 2;
#X connect 21 0 61 4;
#X connect 21 1 61 1;
#X connect 21 1 61 3;
#X connect 21 1 61 5;
#X connect 22 0 21 0;
#X connect 23 0 21 0;
#X connect 24 0 23 0;
#X connect 25 0 21 0;
#X connect 26 0 21 0;
#X connect 27 0 28 0;
#X connect 27 0 29 0;
#X connect 27 0 57 0;
#X connect 29 0 24 0;
#X connect 33 0 12 0;
#X connect 34 0 12 0;
#X connect 35 0 12 0;
#X connect 36 0 21 1;
#X connect 37 0 21 0;
#X connect 38 0 37 1;
#X connect 38 0 36 1;
#X connect 39 0 38 0;
#X connect 48 0 49 0;
#X connect 54 0 53 0;
#X connect 56 0 55 0;
#X connect 57 0 56 0;
#X connect 57 1 54 0;
#X connect 62 0 80 0;
#X connect 62 1 82 0;
#X connect 62 2 66 0;
#X connect 62 3 67 0;
#X connect 62 4 68 0;
#X connect 62 5 69 0;
#X connect 62 6 70 0;
#X connect 62 7 71 0;
#X connect 63 0 64 0;
#X connect 63 0 17 0;
#X connect 64 0 62 0;
#X connect 66 0 73 0;
#X connect 67 0 73 0;
#X connect 68 0 73 0;
#X connect 69 0 73 0;
#X connect 70 0 73 0;
#X connect 71 0 73 0;
#X connect 72 0 65 0;
#X connect 73 0 72 0;
#X connect 73 0 15 0;
#X connect 74 0 38 0;
#X connect 75 0 52 0;
#X connect 76 0 35 0;
#X connect 77 0 26 0;
#X connect 78 0 22 0;
#X connect 79 0 25 0;
#X connect 80 0 73 0;
#X connect 82 0 73 0;
