#N canvas 344 190 971 422 10;
#X declare -lib mrpeach;
#X obj 166 198 dac~;
#X obj 137 59 catch~ l;
#X obj 193 59 catch~ r;
#X obj 14 -151 import mrpeach;
#X text 127 -161 /bike/speed 0-1;
#X text 127 -148 /bike/brake 0-1;
#X text 127 -135 /bike/steering 0-1;
#X obj 14 -121 udpreceive 8888;
#X obj 14 -99 unpackOSC;
#X obj 14 -77 s osc-in;
#X obj 45 25 smplr 1;
#X text 130 -79 sample_2.wav in root dir!!!;
#X obj 564 97 packOSC;
#X obj 564 122 udpsend;
#X obj 655 38 prepend set;
#X msg 655 60 /sampler/2/load 2;
#X obj 564 21 any;
#X msg 616 97 connect 127.0.0.1 8888;
#X obj 467 -116 hsl 128 15 0 2 0 0 empty empty speed -2 -8 0 10 -262144
-1 -1 0 1;
#X msg 464 -96 /bike/speed \$1;
#X obj 564 -79 hradio 15 1 0 8 empty empty sample_X 0 -8 0 10 -262144
-1 -1 0;
#X obj 689 -79 tgl 15 0 empty empty gain/fade 17 7 0 10 -262144 -1
-1 0 1;
#X obj 840 -79 bng 15 250 50 0 empty empty cue 17 7 0 10 -262144 -1
-1;
#X msg 840 -60 0.1;
#X obj 689 -60 / 2;
#X msg 840 -39 /sampler/2/cue \$1;
#X msg 564 -39 /sampler/2/load \$1;
#X msg 689 -39 /sampler/2/fade \$1 1000;
#X text 685 -167 testing;
#X obj 137 87 *~ 0.5;
#X obj 182 87 *~ 0.5;
#X obj 136 119 lop~ 300;
#X obj 198 120 lop~ 300;
#X obj 235 87 f;
#X msg 253 59 5000;
#X obj 136 154 freeverb~;
#X msg 35 91 roomsize \$1;
#X msg 352 71 bypass \$1;
#X obj 352 53 tgl 15 0 empty empty empty 17 7 0 10 -262144 -1 -1 1
1;
#X msg 36 114 damping \$1;
#X msg 37 136 dry \$1;
#X obj 384 -16 loadbang;
#X msg 384 5 \; pd dsp 1;
#X msg 352 33 1;
#X text 127 -121 /sampler/fade 1 0 1000;
#X text 127 -108 /sampler/cue/ 1 0.5;
#X text 127 -95 /sampler/load/ 1 2;
#X obj 24 -36 print;
#X obj 45 46 smplr 2;
#X connect 1 0 29 0;
#X connect 2 0 30 0;
#X connect 7 0 8 0;
#X connect 8 0 9 0;
#X connect 8 0 47 0;
#X connect 12 0 13 0;
#X connect 14 0 15 0;
#X connect 16 0 14 0;
#X connect 16 0 12 0;
#X connect 17 0 13 0;
#X connect 18 0 19 0;
#X connect 19 0 16 0;
#X connect 20 0 26 0;
#X connect 21 0 24 0;
#X connect 22 0 23 0;
#X connect 23 0 25 0;
#X connect 24 0 27 0;
#X connect 25 0 16 0;
#X connect 26 0 16 0;
#X connect 27 0 16 0;
#X connect 29 0 31 0;
#X connect 30 0 32 0;
#X connect 31 0 35 0;
#X connect 32 0 35 1;
#X connect 33 0 31 1;
#X connect 33 0 32 1;
#X connect 34 0 33 0;
#X connect 35 0 0 0;
#X connect 35 1 0 1;
#X connect 36 0 35 0;
#X connect 37 0 35 0;
#X connect 38 0 37 0;
#X connect 39 0 35 0;
#X connect 40 0 35 0;
#X connect 41 0 42 0;
#X connect 41 0 43 0;
#X connect 43 0 38 0;
