#N canvas 1479 361 971 422 10;
#X declare -lib mrpeach;
#X obj 138 78 dac~;
#X obj 137 29 catch~ l;
#X obj 170 50 catch~ r;
#X obj 46 -109 import mrpeach;
#X text 198 -83 /sampler/\$1/fade 0 1000;
#X text 198 -70 /sampler/\$1/cue 0.5;
#X text 198 -57 /sampler/\$1/load 2;
#X text 198 -123 /bike/speed 0-1;
#X text 198 -110 /bike/brake 0-1;
#X text 198 -97 /bike/steering 0-1;
#X obj 46 -79 udpreceive 8888;
#X obj 46 -57 unpackOSC;
#X obj 46 -35 s osc-in;
#X obj 45 25 smplr 1;
#X text 201 -41 sample_2.wav in root dir!!!;
#X obj 564 97 packOSC;
#X obj 564 122 udpsend;
#X obj 655 38 prepend set;
#X msg 655 60 /sampler/2/cue 0.1;
#X obj 564 21 any;
#X msg 616 97 connect 127.0.0.1 8888;
#X obj 467 -116 hsl 128 15 0 2 0 0 empty empty speed -2 -8 0 10 -262144
-1 -1 6000 1;
#X msg 464 -96 /bike/speed \$1;
#X obj 564 -79 hradio 15 1 0 8 empty empty sample_X 0 -8 0 10 -262144
-1 -1 4;
#X obj 689 -79 tgl 15 0 empty empty gain/fade 17 7 0 10 -262144 -1
-1 1 1;
#X obj 840 -79 bng 15 250 50 0 empty empty cue 17 7 0 10 -262144 -1
-1;
#X msg 840 -60 0.1;
#X obj 689 -60 / 2;
#X msg 840 -39 /sampler/2/cue \$1;
#X obj 45 46 smplr 2;
#X msg 564 -39 /sampler/2/load \$1;
#X msg 689 -39 /sampler/2/fade \$1 1000;
#X text 685 -167 testing;
#X connect 1 0 0 0;
#X connect 2 0 0 1;
#X connect 10 0 11 0;
#X connect 11 0 12 0;
#X connect 15 0 16 0;
#X connect 17 0 18 0;
#X connect 19 0 17 0;
#X connect 19 0 15 0;
#X connect 20 0 16 0;
#X connect 21 0 22 0;
#X connect 22 0 19 0;
#X connect 23 0 30 0;
#X connect 24 0 27 0;
#X connect 25 0 26 0;
#X connect 26 0 28 0;
#X connect 27 0 31 0;
#X connect 28 0 19 0;
#X connect 30 0 19 0;
#X connect 31 0 19 0;
