#N canvas 295 232 804 537 10;
#X obj 159 -88 *~;
#X obj 159 -67 tabread4~ \$1-samp;
#X obj 225 43 *~;
#X msg 241 -24 \$1 20;
#X obj 241 -2 vline~;
#X obj 169 70 throw~ l;
#X obj 168 43 *~;
#X obj 226 70 throw~ r;
#X obj 23 -105 soundfiler;
#X obj 23 -270 t a b;
#X obj 23 -217 prepend;
#X msg 62 -241 read -resize;
#X obj 23 -175 int \$1;
#X msg 23 -154 \$1-samp;
#X obj 23 -196 t b a;
#X obj 23 -126 prepend;
#X obj 159 -130 *~;
#X obj 159 -193 line;
#X obj 159 -151 vline~;
#X msg 159 -172 \$1 40;
#X obj 159 -109 phasor~;
#X obj 292 -67 table \$1-samp;
#X obj 23 -84 expr 1/($f1/44100);
#X obj 241 -102 line;
#X obj 229 -194 unpack f f;
#X obj 229 -173 min 1;
#X obj 229 -152 max 0;
#X obj 241 -123 pack f f;
#X obj 286 -152 max 200;
#X obj 141 9 z~;
#X msg 454 -105 0;
#X msg 415 -61 \$1 50;
#X obj 415 -126 delay 100;
#X obj 415 -241 bng 15 250 50 0 empty empty cue 17 7 0 10 -262144 -1
-1;
#X obj 172 -239 hsl 128 15 0 2 0 0 empty empty speed -2 -8 0 10 -262144
-1 -1 0 1;
#X text 450 -352 /sampler/\$1/fade 0 1000;
#X text 450 -339 /sampler/\$1/cue 0.5;
#X obj 434 -162 pipe 50;
#X obj 415 -185 t b f b;
#X text 450 -326 /sampler/\$1/load 2;
#X text 450 -392 /bike/speed 0-1;
#X text 450 -379 /bike/brake 0-1;
#X text 450 -366 /bike/steering 0-1;
#X obj 159 -413 r osc-in;
#X obj 335 -23 loadbang;
#X msg 335 -2 0;
#X obj 159 -392 routeOSC /bike /sampler;
#X obj 159 -365 routeOSC /speed;
#X obj 415 -104 f;
#X obj 229 -304 route \$1;
#X obj 229 -339 routeOSC /gain /cue /load;
#X obj 296 -304 route \$1;
#X obj 23 -333 route \$1;
#X obj 23 -291 shell;
#X obj 156 -268 / 5.2;
#X msg 169 -302 5.2;
#X obj 173 -322 moses 7;
#X msg 159 -214 \$1 100;
#X obj 87 -201 print;
#X msg 25 -312 ls \$1*;
#X obj 199 -301 - 1.8;
#X obj 159 -344 moses 4;
#X connect 0 0 1 0;
#X connect 1 0 6 0;
#X connect 1 0 2 0;
#X connect 2 0 7 0;
#X connect 3 0 4 0;
#X connect 4 0 2 1;
#X connect 4 0 6 1;
#X connect 6 0 5 0;
#X connect 8 0 0 1;
#X connect 8 0 22 0;
#X connect 9 0 10 0;
#X connect 9 1 11 0;
#X connect 10 0 14 0;
#X connect 11 0 10 1;
#X connect 12 0 13 0;
#X connect 13 0 15 0;
#X connect 14 0 12 0;
#X connect 14 1 15 1;
#X connect 15 0 8 0;
#X connect 15 0 58 0;
#X connect 16 0 20 0;
#X connect 17 0 19 0;
#X connect 18 0 16 0;
#X connect 19 0 18 0;
#X connect 20 0 0 0;
#X connect 22 0 16 1;
#X connect 23 0 3 0;
#X connect 24 0 25 0;
#X connect 24 1 28 0;
#X connect 25 0 26 0;
#X connect 26 0 27 0;
#X connect 26 0 48 1;
#X connect 27 0 23 0;
#X connect 28 0 27 1;
#X connect 30 0 31 0;
#X connect 31 0 23 0;
#X connect 32 0 48 0;
#X connect 33 0 38 0;
#X connect 34 0 57 0;
#X connect 37 0 20 1;
#X connect 38 0 32 0;
#X connect 38 1 37 0;
#X connect 38 2 30 0;
#X connect 43 0 46 0;
#X connect 44 0 45 0;
#X connect 45 0 3 0;
#X connect 46 0 47 0;
#X connect 46 1 50 0;
#X connect 47 0 61 0;
#X connect 48 0 31 0;
#X connect 49 0 24 0;
#X connect 50 0 49 0;
#X connect 50 1 51 0;
#X connect 50 2 52 0;
#X connect 51 0 38 0;
#X connect 52 0 59 0;
#X connect 53 0 9 0;
#X connect 54 0 57 0;
#X connect 55 0 54 0;
#X connect 56 0 55 0;
#X connect 56 1 60 0;
#X connect 57 0 17 0;
#X connect 59 0 53 0;
#X connect 60 0 54 0;
#X connect 61 0 54 0;
#X connect 61 1 56 0;
#X coords 0 537 1 536 481 120 0;
